<svg width="46" height="46" viewBox="0 0 46 46" fill="none" xmlns="http://www.w3.org/2000/svg">
<g filter="url(#filter0_d_2205_271)">
<path d="M16.7101 29.8331C16.7101 29.9863 16.5339 30.1089 16.3117 30.1089C16.0589 30.1319 15.8827 30.0093 15.8827 29.8331C15.8827 29.6798 16.0589 29.5573 16.281 29.5573C16.5109 29.5343 16.7101 29.6569 16.7101 29.8331ZM14.3274 29.4883C14.2738 29.6415 14.427 29.8177 14.6569 29.8637C14.856 29.9403 15.0859 29.8637 15.1319 29.7105C15.1778 29.5573 15.0323 29.3811 14.8024 29.3121C14.6032 29.2585 14.381 29.3351 14.3274 29.4883ZM17.7137 29.3581C17.4915 29.4117 17.3383 29.5573 17.3613 29.7335C17.3843 29.8867 17.5835 29.9863 17.8133 29.9327C18.0355 29.879 18.1887 29.7335 18.1657 29.5802C18.1427 29.4347 17.9359 29.3351 17.7137 29.3581ZM22.7548 0C12.1286 0 4 8.06734 4 18.6935C4 27.1899 9.34758 34.4605 16.9859 37.0194C17.9665 37.1956 18.3113 36.5903 18.3113 36.0923C18.3113 35.6173 18.2883 32.9972 18.2883 31.3883C18.2883 31.3883 12.9254 32.5375 11.7992 29.1052C11.7992 29.1052 10.9258 26.8758 9.66935 26.3012C9.66935 26.3012 7.91492 25.0984 9.79194 25.1214C9.79194 25.1214 11.6996 25.2746 12.7492 27.098C14.427 30.0552 17.2387 29.2048 18.3343 28.6992C18.5105 27.4734 19.0085 26.623 19.5601 26.1173C15.2774 25.6423 10.9565 25.0218 10.9565 17.6516C10.9565 15.5448 11.5387 14.4875 12.7645 13.1391C12.5653 12.6411 11.9141 10.5879 12.9637 7.9371C14.5649 7.43911 18.25 10.0056 18.25 10.0056C19.7823 9.57661 21.4294 9.35444 23.0613 9.35444C24.6931 9.35444 26.3403 9.57661 27.8726 10.0056C27.8726 10.0056 31.5577 7.43145 33.1589 7.9371C34.2085 10.5956 33.5573 12.6411 33.3581 13.1391C34.5839 14.4952 35.3347 15.5524 35.3347 17.6516C35.3347 25.0448 30.8222 25.6347 26.5395 26.1173C27.2444 26.7226 27.8419 27.8718 27.8419 29.6722C27.8419 32.254 27.819 35.4488 27.819 36.077C27.819 36.575 28.1714 37.1802 29.1444 37.004C36.8056 34.4605 42 27.1899 42 18.6935C42 8.06734 33.381 0 22.7548 0ZM11.4468 26.4238C11.3472 26.5004 11.3702 26.6766 11.5004 26.8222C11.623 26.9448 11.7992 26.9984 11.8988 26.8988C11.9984 26.8222 11.9754 26.646 11.8452 26.5004C11.7226 26.3778 11.5464 26.3242 11.4468 26.4238ZM10.6194 25.8032C10.5657 25.9028 10.6423 26.0254 10.7956 26.102C10.9181 26.1786 11.0714 26.1556 11.125 26.0484C11.1786 25.9488 11.102 25.8262 10.9488 25.7496C10.7956 25.7036 10.673 25.7266 10.6194 25.8032ZM13.1016 28.5306C12.979 28.6302 13.025 28.8601 13.2012 29.0056C13.3774 29.1819 13.5996 29.2048 13.6992 29.0823C13.7988 28.9827 13.7528 28.7528 13.5996 28.6073C13.431 28.431 13.2012 28.4081 13.1016 28.5306ZM12.2282 27.4044C12.1056 27.4811 12.1056 27.6802 12.2282 27.8565C12.3508 28.0327 12.5577 28.1093 12.6573 28.0327C12.7798 27.9331 12.7798 27.7339 12.6573 27.5577C12.55 27.3815 12.3508 27.3048 12.2282 27.4044Z" fill="white"/>
</g>
<defs>
<filter id="filter0_d_2205_271" x="0" y="0" width="46" height="45.0505" filterUnits="userSpaceOnUse" color-interpolation-filters="sRGB">
<feFlood flood-opacity="0" result="BackgroundImageFix"/>
<feColorMatrix in="SourceAlpha" type="matrix" values="0 0 0 0 0 0 0 0 0 0 0 0 0 0 0 0 0 0 127 0" result="hardAlpha"/>
<feOffset dy="4"/>
<feGaussianBlur stdDeviation="2"/>
<feComposite in2="hardAlpha" operator="out"/>
<feColorMatrix type="matrix" values="0 0 0 0 0 0 0 0 0 0 0 0 0 0 0 0 0 0 0.25 0"/>
<feBlend mode="normal" in2="BackgroundImageFix" result="effect1_dropShadow_2205_271"/>
<feBlend mode="normal" in="SourceGraphic" in2="effect1_dropShadow_2205_271" result="shape"/>
</filter>
</defs>
</svg>
