<svg width="46" height="46" viewBox="0 0 46 46" fill="none" xmlns="http://www.w3.org/2000/svg">
<g filter="url(#filter0_d_2205_274)">
<path d="M39.2857 0H6.7058C5.21295 0 4 1.22991 4 2.73973V35.2603C4 36.7701 5.21295 38 6.7058 38H39.2857C40.7786 38 42 36.7701 42 35.2603V2.73973C42 1.22991 40.7786 0 39.2857 0ZM15.4848 32.5714H9.85268V14.4366H15.4933V32.5714H15.4848ZM12.6687 11.9598C10.8621 11.9598 9.40312 10.4924 9.40312 8.6942C9.40312 6.89598 10.8621 5.42857 12.6687 5.42857C14.467 5.42857 15.9344 6.89598 15.9344 8.6942C15.9344 10.5009 14.4754 11.9598 12.6687 11.9598ZM36.5969 32.5714H30.9647V23.75C30.9647 21.6464 30.9223 18.9406 28.0384 18.9406C25.1036 18.9406 24.654 21.2308 24.654 23.5973V32.5714H19.0219V14.4366H24.425V16.9134H24.5013C25.2562 15.4884 27.0969 13.9871 29.8366 13.9871C35.5366 13.9871 36.5969 17.7446 36.5969 22.6304V32.5714Z" fill="white"/>
</g>
<defs>
<filter id="filter0_d_2205_274" x="0" y="0" width="46" height="46" filterUnits="userSpaceOnUse" color-interpolation-filters="sRGB">
<feFlood flood-opacity="0" result="BackgroundImageFix"/>
<feColorMatrix in="SourceAlpha" type="matrix" values="0 0 0 0 0 0 0 0 0 0 0 0 0 0 0 0 0 0 127 0" result="hardAlpha"/>
<feOffset dy="4"/>
<feGaussianBlur stdDeviation="2"/>
<feComposite in2="hardAlpha" operator="out"/>
<feColorMatrix type="matrix" values="0 0 0 0 0 0 0 0 0 0 0 0 0 0 0 0 0 0 0.25 0"/>
<feBlend mode="normal" in2="BackgroundImageFix" result="effect1_dropShadow_2205_274"/>
<feBlend mode="normal" in="SourceGraphic" in2="effect1_dropShadow_2205_274" result="shape"/>
</filter>
</defs>
</svg>
