<svg width="46" height="31" viewBox="0 0 46 31" fill="none" xmlns="http://www.w3.org/2000/svg">
<g filter="url(#filter0_d_2205_259)">
<path d="M41.134 1.53079C41.395 0.648998 41.134 0 39.8783 0H35.7233C34.6651 0 34.1784 0.557291 33.9174 1.17807C33.9174 1.17807 31.8011 6.33478 28.8101 9.67853C27.8436 10.645 27.3992 10.9554 26.8701 10.9554C26.6091 10.9554 26.207 10.645 26.207 9.76318V1.53079C26.207 0.472639 25.9107 0 25.036 0H18.5037C17.8406 0 17.4455 0.493803 17.4455 0.952334C17.4455 1.95405 18.9411 2.18684 19.0963 5.00857V11.1317C19.0963 12.472 18.8564 12.7189 18.3273 12.7189C16.9165 12.7189 13.4881 7.54107 11.4564 1.61544C11.0473 0.465586 10.6452 0 9.57997 0H5.42497C4.23985 0 4 0.557291 4 1.17807C4 2.27855 5.41086 7.74565 10.5676 14.9693C14.003 19.9002 18.8423 22.5738 23.2442 22.5738C25.8896 22.5738 26.2141 21.9813 26.2141 20.9584C26.2141 16.2461 25.9742 15.8017 27.3004 15.8017C27.9142 15.8017 28.9723 16.1121 31.4413 18.4894C34.263 21.3111 34.7286 22.5738 36.3088 22.5738H40.4638C41.6489 22.5738 42.2485 21.9813 41.9029 20.8103C41.1128 18.3483 35.7727 13.2833 35.5328 12.9447C34.9191 12.1546 35.0955 11.8019 35.5328 11.0965C35.5399 11.0894 40.6119 3.95042 41.134 1.53079Z" fill="white"/>
</g>
<defs>
<filter id="filter0_d_2205_259" x="0" y="0" width="46" height="30.5739" filterUnits="userSpaceOnUse" color-interpolation-filters="sRGB">
<feFlood flood-opacity="0" result="BackgroundImageFix"/>
<feColorMatrix in="SourceAlpha" type="matrix" values="0 0 0 0 0 0 0 0 0 0 0 0 0 0 0 0 0 0 127 0" result="hardAlpha"/>
<feOffset dy="4"/>
<feGaussianBlur stdDeviation="2"/>
<feComposite in2="hardAlpha" operator="out"/>
<feColorMatrix type="matrix" values="0 0 0 0 0 0 0 0 0 0 0 0 0 0 0 0 0 0 0.25 0"/>
<feBlend mode="normal" in2="BackgroundImageFix" result="effect1_dropShadow_2205_259"/>
<feBlend mode="normal" in="SourceGraphic" in2="effect1_dropShadow_2205_259" result="shape"/>
</filter>
</defs>
</svg>
